<svg id="visual" viewBox="0 0 4000 2000" width="4000" height="2000" xmlns="http://www.w3.org/2000/svg" xmlns:xlink="http://www.w3.org/1999/xlink" version="1.1"><g stroke-width="1" stroke-linejoin="bevel"><path d="M1927 989L1829 803L1740 942Z" fill="#6242d8" stroke="#6242d8"></path><path d="M1927 989L1971 730L1829 803Z" fill="#331f7e" stroke="#331f7e"></path><path d="M1634 724L1653 1054L1740 942Z" fill="#4c32af" stroke="#4c32af"></path><path d="M1740 942L1856 1181L1927 989Z" fill="#331f7e" stroke="#331f7e"></path><path d="M1971 730L1812 671L1829 803Z" fill="#5c3ece" stroke="#5c3ece"></path><path d="M1829 803L1634 724L1740 942Z" fill="#6746e3" stroke="#6746e3"></path><path d="M1653 1054L1856 1181L1740 942Z" fill="#5136b9" stroke="#5136b9"></path><path d="M1675 671L1634 724L1829 803Z" fill="#331f7e" stroke="#331f7e"></path><path d="M1812 671L1675 671L1829 803Z" fill="#331f7e" stroke="#331f7e"></path><path d="M1856 1181L2073 1135L1927 989Z" fill="#331f7e" stroke="#331f7e"></path><path d="M1927 989L2145 789L1971 730Z" fill="#472ea5" stroke="#472ea5"></path><path d="M2239 1045L2145 789L1927 989Z" fill="#6242d8" stroke="#6242d8"></path><path d="M1971 730L2015 611L1812 671Z" fill="#5136b9" stroke="#5136b9"></path><path d="M2141 615L2015 611L1971 730Z" fill="#472ea5" stroke="#472ea5"></path><path d="M1812 671L1871 353L1675 671Z" fill="#5136b9" stroke="#5136b9"></path><path d="M1470 1069L1584 1193L1653 1054Z" fill="#6746e3" stroke="#6746e3"></path><path d="M1653 1054L1584 1193L1856 1181Z" fill="#331f7e" stroke="#331f7e"></path><path d="M1634 724L1470 1069L1653 1054Z" fill="#5136b9" stroke="#5136b9"></path><path d="M2073 1135L2239 1045L1927 989Z" fill="#5136b9" stroke="#5136b9"></path><path d="M2145 789L2141 615L1971 730Z" fill="#5136b9" stroke="#5136b9"></path><path d="M2363 772L2141 615L2145 789Z" fill="#5c3ece" stroke="#5c3ece"></path><path d="M2073 1135L2238 1142L2239 1045Z" fill="#422a9b" stroke="#422a9b"></path><path d="M2148 1446L2238 1142L2073 1135Z" fill="#3d2691" stroke="#3d2691"></path><path d="M1675 671L1469 646L1634 724Z" fill="#573ac3" stroke="#573ac3"></path><path d="M1634 724L1401 757L1470 1069Z" fill="#422a9b" stroke="#422a9b"></path><path d="M1571 331L1469 646L1675 671Z" fill="#573ac3" stroke="#573ac3"></path><path d="M1469 646L1401 757L1634 724Z" fill="#3d2691" stroke="#3d2691"></path><path d="M1584 1193L1821 1385L1856 1181Z" fill="#5c3ece" stroke="#5c3ece"></path><path d="M1856 1181L1944 1414L2073 1135Z" fill="#4c32af" stroke="#4c32af"></path><path d="M2165 389L1951 447L2015 611Z" fill="#331f7e" stroke="#331f7e"></path><path d="M2015 611L1951 447L1812 671Z" fill="#472ea5" stroke="#472ea5"></path><path d="M1821 1385L1944 1414L1856 1181Z" fill="#4c32af" stroke="#4c32af"></path><path d="M1137 1050L1375 1137L1470 1069Z" fill="#4c32af" stroke="#4c32af"></path><path d="M1470 1069L1375 1137L1584 1193Z" fill="#573ac3" stroke="#573ac3"></path><path d="M1584 1193L1643 1463L1821 1385Z" fill="#5c3ece" stroke="#5c3ece"></path><path d="M2397 1047L2363 772L2239 1045Z" fill="#5c3ece" stroke="#5c3ece"></path><path d="M2239 1045L2363 772L2145 789Z" fill="#3d2691" stroke="#3d2691"></path><path d="M1964 226L1871 353L1951 447Z" fill="#3d2691" stroke="#3d2691"></path><path d="M2165 389L2015 611L2141 615Z" fill="#5c3ece" stroke="#5c3ece"></path><path d="M1951 447L1871 353L1812 671Z" fill="#6746e3" stroke="#6746e3"></path><path d="M2346 1206L2397 1047L2238 1142Z" fill="#331f7e" stroke="#331f7e"></path><path d="M2238 1142L2397 1047L2239 1045Z" fill="#573ac3" stroke="#573ac3"></path><path d="M2148 1446L2346 1206L2238 1142Z" fill="#422a9b" stroke="#422a9b"></path><path d="M1328 1384L1643 1463L1584 1193Z" fill="#5c3ece" stroke="#5c3ece"></path><path d="M1821 1385L1935 1532L1944 1414Z" fill="#382388" stroke="#382388"></path><path d="M2368 539L2165 389L2141 615Z" fill="#6242d8" stroke="#6242d8"></path><path d="M1935 1532L2148 1446L1944 1414Z" fill="#331f7e" stroke="#331f7e"></path><path d="M1944 1414L2148 1446L2073 1135Z" fill="#6746e3" stroke="#6746e3"></path><path d="M1797 1547L1935 1532L1821 1385Z" fill="#382388" stroke="#382388"></path><path d="M1260 619L1236 738L1401 757Z" fill="#3d2691" stroke="#3d2691"></path><path d="M1401 757L1137 1050L1470 1069Z" fill="#4c32af" stroke="#4c32af"></path><path d="M1260 619L1401 757L1469 646Z" fill="#5c3ece" stroke="#5c3ece"></path><path d="M1643 1463L1797 1547L1821 1385Z" fill="#6242d8" stroke="#6242d8"></path><path d="M2436 466L2368 539L2662 542Z" fill="#422a9b" stroke="#422a9b"></path><path d="M2363 772L2368 539L2141 615Z" fill="#6242d8" stroke="#6242d8"></path><path d="M1871 353L1571 331L1675 671Z" fill="#382388" stroke="#382388"></path><path d="M1137 1050L1258 1184L1375 1137Z" fill="#5c3ece" stroke="#5c3ece"></path><path d="M1375 1137L1328 1384L1584 1193Z" fill="#382388" stroke="#382388"></path><path d="M1410 374L1260 619L1469 646Z" fill="#5c3ece" stroke="#5c3ece"></path><path d="M1860 147L1638 267L1871 353Z" fill="#382388" stroke="#382388"></path><path d="M1871 353L1638 267L1571 331Z" fill="#4c32af" stroke="#4c32af"></path><path d="M1571 331L1410 374L1469 646Z" fill="#573ac3" stroke="#573ac3"></path><path d="M1375 171L1410 374L1571 331Z" fill="#573ac3" stroke="#573ac3"></path><path d="M2258 154L1964 226L2165 389Z" fill="#3d2691" stroke="#3d2691"></path><path d="M2165 389L1964 226L1951 447Z" fill="#382388" stroke="#382388"></path><path d="M1258 1184L1328 1384L1375 1137Z" fill="#5136b9" stroke="#5136b9"></path><path d="M1643 1463L1631 1580L1797 1547Z" fill="#6242d8" stroke="#6242d8"></path><path d="M1327 1568L1631 1580L1643 1463Z" fill="#472ea5" stroke="#472ea5"></path><path d="M2137 1783L2232 1563L1935 1532Z" fill="#5136b9" stroke="#5136b9"></path><path d="M1032 1035L1137 1050L1036 730Z" fill="#331f7e" stroke="#331f7e"></path><path d="M1236 738L1137 1050L1401 757Z" fill="#331f7e" stroke="#331f7e"></path><path d="M1258 1184L1210 1360L1328 1384Z" fill="#573ac3" stroke="#573ac3"></path><path d="M2622 787L2368 539L2363 772Z" fill="#331f7e" stroke="#331f7e"></path><path d="M2368 539L2436 466L2165 389Z" fill="#331f7e" stroke="#331f7e"></path><path d="M1935 1532L2232 1563L2148 1446Z" fill="#331f7e" stroke="#331f7e"></path><path d="M2148 1446L2389 1462L2346 1206Z" fill="#5136b9" stroke="#5136b9"></path><path d="M2555 1264L2626 1001L2397 1047Z" fill="#6746e3" stroke="#6746e3"></path><path d="M1830 1814L1935 1532L1797 1547Z" fill="#5136b9" stroke="#5136b9"></path><path d="M1863 0L1860 147L2022 0Z" fill="#5c3ece" stroke="#5c3ece"></path><path d="M1964 226L1860 147L1871 353Z" fill="#4c32af" stroke="#4c32af"></path><path d="M1375 171L1244 360L1410 374Z" fill="#6746e3" stroke="#6746e3"></path><path d="M2349 1534L2389 1462L2148 1446Z" fill="#422a9b" stroke="#422a9b"></path><path d="M2397 1047L2622 787L2363 772Z" fill="#6746e3" stroke="#6746e3"></path><path d="M1044 1254L1210 1360L1258 1184Z" fill="#422a9b" stroke="#422a9b"></path><path d="M1328 1384L1327 1568L1643 1463Z" fill="#6746e3" stroke="#6746e3"></path><path d="M2555 1264L2397 1047L2346 1206Z" fill="#5136b9" stroke="#5136b9"></path><path d="M2626 1001L2622 787L2397 1047Z" fill="#331f7e" stroke="#331f7e"></path><path d="M2389 1462L2555 1264L2346 1206Z" fill="#422a9b" stroke="#422a9b"></path><path d="M2232 1563L2349 1534L2148 1446Z" fill="#422a9b" stroke="#422a9b"></path><path d="M2389 1462L2624 1439L2555 1264Z" fill="#422a9b" stroke="#422a9b"></path><path d="M1410 374L1244 360L1260 619Z" fill="#573ac3" stroke="#573ac3"></path><path d="M1036 730L1137 1050L1236 738Z" fill="#573ac3" stroke="#573ac3"></path><path d="M1375 171L1571 331L1638 267Z" fill="#573ac3" stroke="#573ac3"></path><path d="M1036 730L1236 738L1260 619Z" fill="#382388" stroke="#382388"></path><path d="M1137 1050L1044 1254L1258 1184Z" fill="#3d2691" stroke="#3d2691"></path><path d="M933 570L1036 730L1260 619Z" fill="#573ac3" stroke="#573ac3"></path><path d="M1210 1360L1327 1568L1328 1384Z" fill="#422a9b" stroke="#422a9b"></path><path d="M2364 168L2165 389L2436 466Z" fill="#4c32af" stroke="#4c32af"></path><path d="M2364 168L2258 154L2165 389Z" fill="#331f7e" stroke="#331f7e"></path><path d="M1032 1035L1044 1254L1137 1050Z" fill="#5c3ece" stroke="#5c3ece"></path><path d="M1210 1360L1170 1608L1327 1568Z" fill="#382388" stroke="#382388"></path><path d="M1672 0L1375 171L1638 267Z" fill="#382388" stroke="#382388"></path><path d="M2738 736L2662 542L2622 787Z" fill="#472ea5" stroke="#472ea5"></path><path d="M2622 787L2662 542L2368 539Z" fill="#573ac3" stroke="#573ac3"></path><path d="M1643 1853L1830 1814L1631 1580Z" fill="#3d2691" stroke="#3d2691"></path><path d="M1631 1580L1830 1814L1797 1547Z" fill="#3d2691" stroke="#3d2691"></path><path d="M2232 1563L2383 1820L2349 1534Z" fill="#573ac3" stroke="#573ac3"></path><path d="M2624 275L2364 168L2436 466Z" fill="#422a9b" stroke="#422a9b"></path><path d="M2763 996L2622 787L2626 1001Z" fill="#422a9b" stroke="#422a9b"></path><path d="M2763 996L2738 736L2622 787Z" fill="#6242d8" stroke="#6242d8"></path><path d="M2022 0L1860 147L1964 226Z" fill="#3d2691" stroke="#3d2691"></path><path d="M1860 147L1672 0L1638 267Z" fill="#4c32af" stroke="#4c32af"></path><path d="M2022 0L1964 226L2258 154Z" fill="#422a9b" stroke="#422a9b"></path><path d="M2072 1809L2137 1783L1935 1532Z" fill="#472ea5" stroke="#472ea5"></path><path d="M2759 1155L2626 1001L2555 1264Z" fill="#6242d8" stroke="#6242d8"></path><path d="M2759 1155L2763 996L2626 1001Z" fill="#573ac3" stroke="#573ac3"></path><path d="M1830 1814L2072 1809L1935 1532Z" fill="#5c3ece" stroke="#5c3ece"></path><path d="M1863 0L1672 0L1860 147Z" fill="#6746e3" stroke="#6746e3"></path><path d="M2179 0L2022 0L2258 154Z" fill="#331f7e" stroke="#331f7e"></path><path d="M2672 1546L2389 1462L2349 1534Z" fill="#4c32af" stroke="#4c32af"></path><path d="M2672 1546L2624 1439L2389 1462Z" fill="#3d2691" stroke="#3d2691"></path><path d="M2831 1396L2759 1155L2555 1264Z" fill="#331f7e" stroke="#331f7e"></path><path d="M818 1369L1010 1360L1044 1254Z" fill="#472ea5" stroke="#472ea5"></path><path d="M1044 1254L1010 1360L1210 1360Z" fill="#331f7e" stroke="#331f7e"></path><path d="M745 1159L1044 1254L1032 1035Z" fill="#5c3ece" stroke="#5c3ece"></path><path d="M1375 171L1156 249L1244 360Z" fill="#382388" stroke="#382388"></path><path d="M1244 360L1037 394L1260 619Z" fill="#382388" stroke="#382388"></path><path d="M1228 0L1156 249L1375 171Z" fill="#6746e3" stroke="#6746e3"></path><path d="M1156 249L1037 394L1244 360Z" fill="#573ac3" stroke="#573ac3"></path><path d="M1036 730L828 948L1032 1035Z" fill="#382388" stroke="#382388"></path><path d="M1406 1827L1643 1853L1631 1580Z" fill="#3d2691" stroke="#3d2691"></path><path d="M1830 1814L1995 2000L2072 1809Z" fill="#573ac3" stroke="#573ac3"></path><path d="M1406 1827L1631 1580L1327 1568Z" fill="#573ac3" stroke="#573ac3"></path><path d="M1010 1360L1170 1608L1210 1360Z" fill="#382388" stroke="#382388"></path><path d="M2471 0L2179 0L2258 154Z" fill="#382388" stroke="#382388"></path><path d="M2742 357L2671 399L2867 535Z" fill="#382388" stroke="#382388"></path><path d="M2662 542L2671 399L2436 466Z" fill="#5c3ece" stroke="#5c3ece"></path><path d="M2364 168L2471 0L2258 154Z" fill="#6746e3" stroke="#6746e3"></path><path d="M1037 394L933 570L1260 619Z" fill="#6242d8" stroke="#6242d8"></path><path d="M2671 399L2624 275L2436 466Z" fill="#331f7e" stroke="#331f7e"></path><path d="M1672 0L1412 0L1375 171Z" fill="#5c3ece" stroke="#5c3ece"></path><path d="M1245 1848L1406 1827L1327 1568Z" fill="#4c32af" stroke="#4c32af"></path><path d="M747 763L828 948L1036 730Z" fill="#573ac3" stroke="#573ac3"></path><path d="M2610 1765L2672 1546L2349 1534Z" fill="#573ac3" stroke="#573ac3"></path><path d="M2624 1439L2831 1396L2555 1264Z" fill="#573ac3" stroke="#573ac3"></path><path d="M2867 535L2671 399L2662 542Z" fill="#6242d8" stroke="#6242d8"></path><path d="M2671 399L2742 357L2624 275Z" fill="#472ea5" stroke="#472ea5"></path><path d="M2867 535L2662 542L2738 736Z" fill="#3d2691" stroke="#3d2691"></path><path d="M2212 2000L2383 1820L2137 1783Z" fill="#6746e3" stroke="#6746e3"></path><path d="M2137 1783L2383 1820L2232 1563Z" fill="#3d2691" stroke="#3d2691"></path><path d="M2212 2000L2137 1783L2072 1809Z" fill="#6242d8" stroke="#6242d8"></path><path d="M850 376L831 561L933 570Z" fill="#6242d8" stroke="#6242d8"></path><path d="M1156 249L1032 227L1037 394Z" fill="#382388" stroke="#382388"></path><path d="M1037 0L1032 227L1156 249Z" fill="#331f7e" stroke="#331f7e"></path><path d="M850 376L933 570L1037 394Z" fill="#3d2691" stroke="#3d2691"></path><path d="M933 570L747 763L1036 730Z" fill="#5c3ece" stroke="#5c3ece"></path><path d="M2759 1155L2925 1040L2763 996Z" fill="#422a9b" stroke="#422a9b"></path><path d="M2763 996L3000 751L2738 736Z" fill="#6746e3" stroke="#6746e3"></path><path d="M2929 1249L2925 1040L2759 1155Z" fill="#4c32af" stroke="#4c32af"></path><path d="M3000 751L2867 535L2738 736Z" fill="#422a9b" stroke="#422a9b"></path><path d="M1615 2000L1769 2000L1643 1853Z" fill="#382388" stroke="#382388"></path><path d="M1643 1853L1769 2000L1830 1814Z" fill="#331f7e" stroke="#331f7e"></path><path d="M2794 1541L2624 1439L2672 1546Z" fill="#6242d8" stroke="#6242d8"></path><path d="M2794 1541L2831 1396L2624 1439Z" fill="#5c3ece" stroke="#5c3ece"></path><path d="M1769 2000L1995 2000L1830 1814Z" fill="#4c32af" stroke="#4c32af"></path><path d="M1412 0L1228 0L1375 171Z" fill="#6242d8" stroke="#6242d8"></path><path d="M2558 0L2364 168L2624 275Z" fill="#5136b9" stroke="#5136b9"></path><path d="M2558 0L2471 0L2364 168Z" fill="#4c32af" stroke="#4c32af"></path><path d="M831 561L747 763L933 570Z" fill="#472ea5" stroke="#472ea5"></path><path d="M1406 1827L1615 2000L1643 1853Z" fill="#573ac3" stroke="#573ac3"></path><path d="M1170 1608L1245 1848L1327 1568Z" fill="#3d2691" stroke="#3d2691"></path><path d="M1406 1827L1388 2000L1615 2000Z" fill="#6242d8" stroke="#6242d8"></path><path d="M1028 1731L1245 1848L1170 1608Z" fill="#573ac3" stroke="#573ac3"></path><path d="M2966 413L2749 257L2742 357Z" fill="#3d2691" stroke="#3d2691"></path><path d="M2742 357L2749 257L2624 275Z" fill="#331f7e" stroke="#331f7e"></path><path d="M745 1159L818 1369L1044 1254Z" fill="#472ea5" stroke="#472ea5"></path><path d="M1010 1360L927 1598L1170 1608Z" fill="#422a9b" stroke="#422a9b"></path><path d="M745 1159L1032 1035L828 948Z" fill="#573ac3" stroke="#573ac3"></path><path d="M656 1074L745 1159L828 948Z" fill="#422a9b" stroke="#422a9b"></path><path d="M1032 227L850 376L1037 394Z" fill="#5136b9" stroke="#5136b9"></path><path d="M831 561L629 661L747 763Z" fill="#5c3ece" stroke="#5c3ece"></path><path d="M841 261L850 376L1032 227Z" fill="#6746e3" stroke="#6746e3"></path><path d="M2831 1396L2929 1249L2759 1155Z" fill="#6242d8" stroke="#6242d8"></path><path d="M2610 1765L2794 1541L2672 1546Z" fill="#382388" stroke="#382388"></path><path d="M2831 1396L3008 1354L2929 1249Z" fill="#331f7e" stroke="#331f7e"></path><path d="M2416 2000L2610 1765L2383 1820Z" fill="#6242d8" stroke="#6242d8"></path><path d="M2383 1820L2610 1765L2349 1534Z" fill="#382388" stroke="#382388"></path><path d="M818 1369L927 1598L1010 1360Z" fill="#331f7e" stroke="#331f7e"></path><path d="M1995 2000L2212 2000L2072 1809Z" fill="#331f7e" stroke="#331f7e"></path><path d="M2724 0L2558 0L2624 275Z" fill="#4c32af" stroke="#4c32af"></path><path d="M927 1598L1028 1731L1170 1608Z" fill="#5c3ece" stroke="#5c3ece"></path><path d="M3165 1062L3000 751L2925 1040Z" fill="#4c32af" stroke="#4c32af"></path><path d="M2925 1040L3000 751L2763 996Z" fill="#422a9b" stroke="#422a9b"></path><path d="M2867 535L2966 413L2742 357Z" fill="#6242d8" stroke="#6242d8"></path><path d="M1182 2000L1388 2000L1245 1848Z" fill="#382388" stroke="#382388"></path><path d="M1245 1848L1388 2000L1406 1827Z" fill="#6242d8" stroke="#6242d8"></path><path d="M1037 0L841 261L1032 227Z" fill="#3d2691" stroke="#3d2691"></path><path d="M567 399L629 661L831 561Z" fill="#573ac3" stroke="#573ac3"></path><path d="M550 826L656 1074L828 948Z" fill="#331f7e" stroke="#331f7e"></path><path d="M745 1159L622 1337L818 1369Z" fill="#422a9b" stroke="#422a9b"></path><path d="M818 1369L815 1562L927 1598Z" fill="#573ac3" stroke="#573ac3"></path><path d="M550 826L828 948L747 763Z" fill="#3d2691" stroke="#3d2691"></path><path d="M927 1598L806 1814L1028 1731Z" fill="#6746e3" stroke="#6746e3"></path><path d="M622 1337L815 1562L818 1369Z" fill="#3d2691" stroke="#3d2691"></path><path d="M1228 0L1037 0L1156 249Z" fill="#382388" stroke="#382388"></path><path d="M3056 591L2966 413L2867 535Z" fill="#5c3ece" stroke="#5c3ece"></path><path d="M2749 257L2724 0L2624 275Z" fill="#382388" stroke="#382388"></path><path d="M2212 2000L2416 2000L2383 1820Z" fill="#6242d8" stroke="#6242d8"></path><path d="M2981 1612L2831 1396L2794 1541Z" fill="#573ac3" stroke="#573ac3"></path><path d="M2981 1612L3008 1354L2831 1396Z" fill="#5136b9" stroke="#5136b9"></path><path d="M2929 1249L3130 1185L2925 1040Z" fill="#472ea5" stroke="#472ea5"></path><path d="M2981 1612L2794 1541L2875 1780Z" fill="#422a9b" stroke="#422a9b"></path><path d="M567 399L831 561L850 376Z" fill="#5c3ece" stroke="#5c3ece"></path><path d="M3181 654L3056 591L3000 751Z" fill="#5c3ece" stroke="#5c3ece"></path><path d="M3000 751L3056 591L2867 535Z" fill="#5136b9" stroke="#5136b9"></path><path d="M2947 145L2724 0L2749 257Z" fill="#331f7e" stroke="#331f7e"></path><path d="M1028 1731L1182 2000L1245 1848Z" fill="#3d2691" stroke="#3d2691"></path><path d="M974 2000L1182 2000L1028 1731Z" fill="#382388" stroke="#382388"></path><path d="M378 1061L589 1133L656 1074Z" fill="#472ea5" stroke="#472ea5"></path><path d="M656 1074L589 1133L745 1159Z" fill="#5136b9" stroke="#5136b9"></path><path d="M589 1133L622 1337L745 1159Z" fill="#3d2691" stroke="#3d2691"></path><path d="M815 1562L806 1814L927 1598Z" fill="#331f7e" stroke="#331f7e"></path><path d="M629 661L550 826L747 763Z" fill="#5136b9" stroke="#5136b9"></path><path d="M3008 1354L3130 1185L2929 1249Z" fill="#4c32af" stroke="#4c32af"></path><path d="M3130 1185L3165 1062L2925 1040Z" fill="#472ea5" stroke="#472ea5"></path><path d="M2875 1780L2794 1541L2610 1765Z" fill="#4c32af" stroke="#4c32af"></path><path d="M3008 1354L3223 1436L3130 1185Z" fill="#5136b9" stroke="#5136b9"></path><path d="M3161 187L2947 145L2966 413Z" fill="#4c32af" stroke="#4c32af"></path><path d="M2966 413L2947 145L2749 257Z" fill="#331f7e" stroke="#331f7e"></path><path d="M2416 2000L2638 2000L2610 1765Z" fill="#5c3ece" stroke="#5c3ece"></path><path d="M2638 2000L2875 1780L2610 1765Z" fill="#331f7e" stroke="#331f7e"></path><path d="M3257 766L3181 654L3000 751Z" fill="#5136b9" stroke="#5136b9"></path><path d="M3056 591L3241 416L2966 413Z" fill="#472ea5" stroke="#472ea5"></path><path d="M644 1821L806 1814L815 1562Z" fill="#472ea5" stroke="#472ea5"></path><path d="M590 183L567 399L841 261Z" fill="#4c32af" stroke="#4c32af"></path><path d="M841 261L567 399L850 376Z" fill="#5136b9" stroke="#5136b9"></path><path d="M629 661L472 642L550 826Z" fill="#382388" stroke="#382388"></path><path d="M806 1814L974 2000L1028 1731Z" fill="#5c3ece" stroke="#5c3ece"></path><path d="M567 399L472 642L629 661Z" fill="#331f7e" stroke="#331f7e"></path><path d="M550 826L378 1061L656 1074Z" fill="#5c3ece" stroke="#5c3ece"></path><path d="M589 1133L450 1271L622 1337Z" fill="#472ea5" stroke="#472ea5"></path><path d="M472 642L438 823L550 826Z" fill="#422a9b" stroke="#422a9b"></path><path d="M3165 1062L3257 766L3000 751Z" fill="#331f7e" stroke="#331f7e"></path><path d="M3144 0L2948 0L2947 145Z" fill="#331f7e" stroke="#331f7e"></path><path d="M3340 993L3257 766L3165 1062Z" fill="#422a9b" stroke="#422a9b"></path><path d="M1037 0L755 0L841 261Z" fill="#573ac3" stroke="#573ac3"></path><path d="M3241 416L3056 591L3181 654Z" fill="#4c32af" stroke="#4c32af"></path><path d="M2947 145L2948 0L2724 0Z" fill="#382388" stroke="#382388"></path><path d="M378 1061L450 1271L589 1133Z" fill="#6746e3" stroke="#6746e3"></path><path d="M622 1337L539 1611L815 1562Z" fill="#573ac3" stroke="#573ac3"></path><path d="M755 0L590 183L841 261Z" fill="#5136b9" stroke="#5136b9"></path><path d="M567 399L333 324L472 642Z" fill="#573ac3" stroke="#573ac3"></path><path d="M2839 2000L2963 1858L2875 1780Z" fill="#5c3ece" stroke="#5c3ece"></path><path d="M2875 1780L2963 1858L2981 1612Z" fill="#331f7e" stroke="#331f7e"></path><path d="M2981 1612L3179 1525L3008 1354Z" fill="#382388" stroke="#382388"></path><path d="M3414 1208L3340 993L3165 1062Z" fill="#5c3ece" stroke="#5c3ece"></path><path d="M3182 1809L3179 1525L2981 1612Z" fill="#331f7e" stroke="#331f7e"></path><path d="M2638 2000L2839 2000L2875 1780Z" fill="#382388" stroke="#382388"></path><path d="M3179 1525L3223 1436L3008 1354Z" fill="#6242d8" stroke="#6242d8"></path><path d="M438 823L378 1061L550 826Z" fill="#472ea5" stroke="#472ea5"></path><path d="M247 1194L378 1061L127 1049Z" fill="#6746e3" stroke="#6746e3"></path><path d="M3348 619L3241 416L3181 654Z" fill="#573ac3" stroke="#573ac3"></path><path d="M247 1194L441 1378L450 1271Z" fill="#6242d8" stroke="#6242d8"></path><path d="M450 1271L441 1378L622 1337Z" fill="#3d2691" stroke="#3d2691"></path><path d="M441 1378L539 1611L622 1337Z" fill="#4c32af" stroke="#4c32af"></path><path d="M806 1814L726 2000L974 2000Z" fill="#3d2691" stroke="#3d2691"></path><path d="M3414 1208L3165 1062L3130 1185Z" fill="#472ea5" stroke="#472ea5"></path><path d="M3257 766L3348 619L3181 654Z" fill="#382388" stroke="#382388"></path><path d="M3241 416L3161 187L2966 413Z" fill="#6746e3" stroke="#6746e3"></path><path d="M539 1611L644 1821L815 1562Z" fill="#5c3ece" stroke="#5c3ece"></path><path d="M3466 776L3348 619L3257 766Z" fill="#472ea5" stroke="#472ea5"></path><path d="M3241 416L3347 245L3161 187Z" fill="#4c32af" stroke="#4c32af"></path><path d="M755 0L595 0L590 183Z" fill="#472ea5" stroke="#472ea5"></path><path d="M374 194L333 324L567 399Z" fill="#382388" stroke="#382388"></path><path d="M472 642L187 785L438 823Z" fill="#5c3ece" stroke="#5c3ece"></path><path d="M3348 619L3334 439L3241 416Z" fill="#472ea5" stroke="#472ea5"></path><path d="M571 2000L726 2000L644 1821Z" fill="#472ea5" stroke="#472ea5"></path><path d="M644 1821L726 2000L806 1814Z" fill="#4c32af" stroke="#4c32af"></path><path d="M3179 1525L3360 1406L3223 1436Z" fill="#382388" stroke="#382388"></path><path d="M2963 1858L3182 1809L2981 1612Z" fill="#5c3ece" stroke="#5c3ece"></path><path d="M2839 2000L2971 2000L2963 1858Z" fill="#6242d8" stroke="#6242d8"></path><path d="M3448 0L3144 0L3161 187Z" fill="#6746e3" stroke="#6746e3"></path><path d="M3161 187L3144 0L2947 145Z" fill="#5c3ece" stroke="#5c3ece"></path><path d="M3223 1436L3360 1406L3130 1185Z" fill="#573ac3" stroke="#573ac3"></path><path d="M3340 993L3466 776L3257 766Z" fill="#6242d8" stroke="#6242d8"></path><path d="M3449 1668L3360 1406L3179 1525Z" fill="#422a9b" stroke="#422a9b"></path><path d="M3360 1406L3414 1208L3130 1185Z" fill="#5136b9" stroke="#5136b9"></path><path d="M3348 619L3571 380L3334 439Z" fill="#382388" stroke="#382388"></path><path d="M441 1378L416 1638L539 1611Z" fill="#331f7e" stroke="#331f7e"></path><path d="M539 1611L443 1859L644 1821Z" fill="#4c32af" stroke="#4c32af"></path><path d="M230 1606L416 1638L441 1378Z" fill="#3d2691" stroke="#3d2691"></path><path d="M2971 2000L3182 1809L2963 1858Z" fill="#6242d8" stroke="#6242d8"></path><path d="M374 194L567 399L590 183Z" fill="#382388" stroke="#382388"></path><path d="M187 785L378 1061L438 823Z" fill="#5136b9" stroke="#5136b9"></path><path d="M378 1061L247 1194L450 1271Z" fill="#5136b9" stroke="#5136b9"></path><path d="M3534 1067L3466 776L3340 993Z" fill="#573ac3" stroke="#573ac3"></path><path d="M595 0L374 194L590 183Z" fill="#5c3ece" stroke="#5c3ece"></path><path d="M3334 439L3347 245L3241 416Z" fill="#3d2691" stroke="#3d2691"></path><path d="M3571 380L3347 245L3334 439Z" fill="#5c3ece" stroke="#5c3ece"></path><path d="M147 562L472 642L333 324Z" fill="#573ac3" stroke="#573ac3"></path><path d="M147 562L187 785L472 642Z" fill="#382388" stroke="#382388"></path><path d="M443 1859L571 2000L644 1821Z" fill="#472ea5" stroke="#472ea5"></path><path d="M182 1847L443 1859L416 1638Z" fill="#422a9b" stroke="#422a9b"></path><path d="M416 1638L443 1859L539 1611Z" fill="#573ac3" stroke="#573ac3"></path><path d="M3607 1139L3534 1067L3414 1208Z" fill="#5c3ece" stroke="#5c3ece"></path><path d="M3414 1208L3534 1067L3340 993Z" fill="#422a9b" stroke="#422a9b"></path><path d="M3646 572L3571 380L3348 619Z" fill="#382388" stroke="#382388"></path><path d="M3546 1337L3414 1208L3360 1406Z" fill="#331f7e" stroke="#331f7e"></path><path d="M187 785L127 1049L378 1061Z" fill="#6242d8" stroke="#6242d8"></path><path d="M247 1194L167 1361L441 1378Z" fill="#382388" stroke="#382388"></path><path d="M203 338L147 562L333 324Z" fill="#472ea5" stroke="#472ea5"></path><path d="M187 785L0 870L127 1049Z" fill="#4c32af" stroke="#4c32af"></path><path d="M0 1207L167 1361L247 1194Z" fill="#5c3ece" stroke="#5c3ece"></path><path d="M151 232L333 324L374 194Z" fill="#3d2691" stroke="#3d2691"></path><path d="M151 232L203 338L333 324Z" fill="#573ac3" stroke="#573ac3"></path><path d="M3551 1614L3546 1337L3360 1406Z" fill="#5136b9" stroke="#5136b9"></path><path d="M595 0L343 0L374 194Z" fill="#422a9b" stroke="#422a9b"></path><path d="M167 1361L230 1606L441 1378Z" fill="#5c3ece" stroke="#5c3ece"></path><path d="M228 2000L456 2000L443 1859Z" fill="#5c3ece" stroke="#5c3ece"></path><path d="M443 1859L456 2000L571 2000Z" fill="#472ea5" stroke="#472ea5"></path><path d="M3407 1854L3449 1668L3182 1809Z" fill="#472ea5" stroke="#472ea5"></path><path d="M3182 1809L3449 1668L3179 1525Z" fill="#472ea5" stroke="#472ea5"></path><path d="M3821 1023L3618 849L3534 1067Z" fill="#6746e3" stroke="#6746e3"></path><path d="M3534 1067L3618 849L3466 776Z" fill="#331f7e" stroke="#331f7e"></path><path d="M2971 2000L3247 2000L3182 1809Z" fill="#331f7e" stroke="#331f7e"></path><path d="M3745 1185L3607 1139L3546 1337Z" fill="#573ac3" stroke="#573ac3"></path><path d="M3546 1337L3607 1139L3414 1208Z" fill="#3d2691" stroke="#3d2691"></path><path d="M3646 572L3348 619L3466 776Z" fill="#4c32af" stroke="#4c32af"></path><path d="M3347 245L3448 0L3161 187Z" fill="#6746e3" stroke="#6746e3"></path><path d="M3247 2000L3407 1854L3182 1809Z" fill="#422a9b" stroke="#422a9b"></path><path d="M3449 1668L3551 1614L3360 1406Z" fill="#422a9b" stroke="#422a9b"></path><path d="M241 0L151 232L374 194Z" fill="#5c3ece" stroke="#5c3ece"></path><path d="M0 373L0 622L147 562Z" fill="#5c3ece" stroke="#5c3ece"></path><path d="M0 622L0 870L187 785Z" fill="#382388" stroke="#382388"></path><path d="M3789 855L3646 572L3618 849Z" fill="#5136b9" stroke="#5136b9"></path><path d="M3618 849L3646 572L3466 776Z" fill="#422a9b" stroke="#422a9b"></path><path d="M3661 216L3347 245L3571 380Z" fill="#5136b9" stroke="#5136b9"></path><path d="M3661 216L3448 0L3347 245Z" fill="#6746e3" stroke="#6746e3"></path><path d="M3604 1761L3551 1614L3449 1668Z" fill="#331f7e" stroke="#331f7e"></path><path d="M343 0L241 0L374 194Z" fill="#6242d8" stroke="#6242d8"></path><path d="M0 622L187 785L147 562Z" fill="#382388" stroke="#382388"></path><path d="M127 1049L0 1207L247 1194Z" fill="#422a9b" stroke="#422a9b"></path><path d="M167 1361L0 1673L230 1606Z" fill="#422a9b" stroke="#422a9b"></path><path d="M0 870L0 989L127 1049Z" fill="#6746e3" stroke="#6746e3"></path><path d="M0 373L147 562L203 338Z" fill="#3d2691" stroke="#3d2691"></path><path d="M0 989L0 1207L127 1049Z" fill="#5136b9" stroke="#5136b9"></path><path d="M230 1606L182 1847L416 1638Z" fill="#6746e3" stroke="#6746e3"></path><path d="M0 1207L0 1347L167 1361Z" fill="#472ea5" stroke="#472ea5"></path><path d="M0 1673L182 1847L230 1606Z" fill="#5c3ece" stroke="#5c3ece"></path><path d="M3796 1400L3745 1185L3546 1337Z" fill="#331f7e" stroke="#331f7e"></path><path d="M3821 1023L3789 855L3618 849Z" fill="#573ac3" stroke="#573ac3"></path><path d="M151 232L0 373L203 338Z" fill="#4c32af" stroke="#4c32af"></path><path d="M0 248L0 373L151 232Z" fill="#6242d8" stroke="#6242d8"></path><path d="M3821 1023L3534 1067L3607 1139Z" fill="#6242d8" stroke="#6242d8"></path><path d="M3732 336L3661 216L3571 380Z" fill="#6242d8" stroke="#6242d8"></path><path d="M3732 336L3571 380L3646 572Z" fill="#5c3ece" stroke="#5c3ece"></path><path d="M3407 1854L3604 1761L3449 1668Z" fill="#5c3ece" stroke="#5c3ece"></path><path d="M3551 1614L3796 1400L3546 1337Z" fill="#331f7e" stroke="#331f7e"></path><path d="M3247 2000L3465 2000L3407 1854Z" fill="#382388" stroke="#382388"></path><path d="M0 2000L228 2000L182 1847Z" fill="#472ea5" stroke="#472ea5"></path><path d="M182 1847L228 2000L443 1859Z" fill="#3d2691" stroke="#3d2691"></path><path d="M3465 2000L3604 1761L3407 1854Z" fill="#331f7e" stroke="#331f7e"></path><path d="M0 0L0 248L151 232Z" fill="#6242d8" stroke="#6242d8"></path><path d="M3661 216L3590 0L3448 0Z" fill="#331f7e" stroke="#331f7e"></path><path d="M3837 600L3732 336L3646 572Z" fill="#6242d8" stroke="#6242d8"></path><path d="M3661 216L3733 183L3590 0Z" fill="#6242d8" stroke="#6242d8"></path><path d="M4000 1001L3821 1023L4000 1196Z" fill="#382388" stroke="#382388"></path><path d="M3745 1185L3821 1023L3607 1139Z" fill="#6242d8" stroke="#6242d8"></path><path d="M3789 855L3837 600L3646 572Z" fill="#422a9b" stroke="#422a9b"></path><path d="M0 1347L0 1673L167 1361Z" fill="#6242d8" stroke="#6242d8"></path><path d="M3765 1658L3796 1400L3551 1614Z" fill="#5c3ece" stroke="#5c3ece"></path><path d="M4000 666L3837 600L3789 855Z" fill="#5c3ece" stroke="#5c3ece"></path><path d="M4000 231L3733 183L3732 336Z" fill="#6242d8" stroke="#6242d8"></path><path d="M3732 336L3733 183L3661 216Z" fill="#5c3ece" stroke="#5c3ece"></path><path d="M3801 1783L3765 1658L3604 1761Z" fill="#472ea5" stroke="#472ea5"></path><path d="M3604 1761L3765 1658L3551 1614Z" fill="#331f7e" stroke="#331f7e"></path><path d="M241 0L0 0L151 232Z" fill="#472ea5" stroke="#472ea5"></path><path d="M0 1673L0 1842L182 1847Z" fill="#6746e3" stroke="#6746e3"></path><path d="M4000 0L3755 0L3733 183Z" fill="#382388" stroke="#382388"></path><path d="M3733 183L3755 0L3590 0Z" fill="#331f7e" stroke="#331f7e"></path><path d="M3465 2000L3666 2000L3604 1761Z" fill="#6746e3" stroke="#6746e3"></path><path d="M3666 2000L3801 1783L3604 1761Z" fill="#382388" stroke="#382388"></path><path d="M4000 1385L4000 1196L3796 1400Z" fill="#3d2691" stroke="#3d2691"></path><path d="M4000 1001L4000 873L3821 1023Z" fill="#422a9b" stroke="#422a9b"></path><path d="M3821 1023L4000 873L3789 855Z" fill="#3d2691" stroke="#3d2691"></path><path d="M0 1842L0 2000L182 1847Z" fill="#331f7e" stroke="#331f7e"></path><path d="M3821 1023L3745 1185L4000 1196Z" fill="#422a9b" stroke="#422a9b"></path><path d="M3837 600L4000 422L3732 336Z" fill="#6242d8" stroke="#6242d8"></path><path d="M4000 1196L3745 1185L3796 1400Z" fill="#6242d8" stroke="#6242d8"></path><path d="M4000 873L4000 666L3789 855Z" fill="#6746e3" stroke="#6746e3"></path><path d="M4000 1385L3796 1400L4000 1528Z" fill="#472ea5" stroke="#472ea5"></path><path d="M3666 2000L3744 2000L3801 1783Z" fill="#6746e3" stroke="#6746e3"></path><path d="M4000 1528L3796 1400L3765 1658Z" fill="#6746e3" stroke="#6746e3"></path><path d="M4000 1528L3765 1658L4000 1729Z" fill="#5c3ece" stroke="#5c3ece"></path><path d="M4000 666L4000 422L3837 600Z" fill="#6242d8" stroke="#6242d8"></path><path d="M4000 1729L3765 1658L3801 1783Z" fill="#422a9b" stroke="#422a9b"></path><path d="M4000 422L4000 231L3732 336Z" fill="#6242d8" stroke="#6242d8"></path><path d="M4000 2000L4000 1729L3801 1783Z" fill="#6746e3" stroke="#6746e3"></path><path d="M4000 231L4000 0L3733 183Z" fill="#422a9b" stroke="#422a9b"></path><path d="M3744 2000L4000 2000L3801 1783Z" fill="#331f7e" stroke="#331f7e"></path></g></svg>